<?xml version="1.0" encoding="utf-8"?>
<!-- Generator: Adobe Illustrator 24.1.0, SVG Export Plug-In . SVG Version: 6.00 Build 0)  -->
<svg version="1.1" id="Lag_1" xmlns="http://www.w3.org/2000/svg" xmlns:xlink="http://www.w3.org/1999/xlink" x="0px" y="0px"
	 viewBox="0 0 534 28" style="enable-background:new 0 0 534 28;" xml:space="preserve">
<style type="text/css">
	.st0{fill:#FBFBFB;}
	.st1{fill:#2C2C2C;}
	.st2{fill:#373737;}
</style>
<g>
	<g>
		<path class="st0" d="M266.5,27.9c-87.5,0-174.9,0-262.4,0.1c-3.4,0-4.3-0.6-4.1-3.9c0.3-7.2,0.2-14.4,0-21.5
			c0-2.1,0.4-2.8,2.6-2.4c0.6,0.1,1.3,0,2,0c174.9,0,349.8,0,524.8-0.1c3.7,0,4.8,0.8,4.6,4.4c-0.3,6.7-0.3,13.4,0,20.1
			c0.1,2.9-0.6,3.4-3.6,3.4c-57.8-0.1-115.6-0.1-173.4-0.1C326.8,27.9,296.7,27.9,266.5,27.9z M295,12.6c-1-0.2-1.7,0.4-2.3,1.1
			c-3.6,3.9-3.7,5.2,0.4,8.5c-1.3-2.8-1.2-4.8-0.1-6.6c1.2-0.8,2.4-1.4,3.9-1.3c1.4,1.1,3.1,2.1,1.3,4.1c-0.7,0.7-2.3,1.6-0.7,2.5
			c1.4,0.8,2.4-0.7,3-1.7c1.7-2.6,0.2-5.2-3.6-6.2l-0.4,0.1C296.4,12.1,295.7,12.5,295,12.6z M249.2,16.7c5.1,8.5,8.6,9.9,17.7,7
			c0.5-0.2,1.2,0.4,1.8,0.6c5.2,2.3,10.1,1,12.7-4.5c-4,2.4-7.3,4.5-11.4,3.4c-0.5-0.6-1.1-1.2-1.4-1.9c-0.8-1.5-0.4-2.8,1-3.7
			c0.8-0.6,1.8-0.8,2.7,0c1.3,1.2,0.5,2.2-0.2,3.3c-0.2,0.3,0.1,0.8,0.3,1.7c1.1-1.6,3.3-2,2.8-4c-0.8-2.9-3.6-3.1-6.3-3.4
			c2.9-4.4,0.7-7.5-1.3-10.8c-2,1.2-2.5,3-2.9,4.6c-0.8,2.8-0.5,5.6-4.4,7.4c-2.5,1.2-1.5,4.5,2.1,5.7c-0.5-1.8-2.4-3.7,0.2-4.9
			c1.4-0.7,2.5,0.4,3.2,1.5c0.9,1.4,0.2,2.8-0.9,3.9c-0.8,0.8-1.8,0.5-2.8,0.7c-5.7,0.9-8-3.4-10.9-6.7c-0.6-2.1-2-3.7-3.9-4.5
			C246.8,13.8,247.8,15.3,249.2,16.7z M33.5,7.6l-0.1-0.1c-3.1-3.6-5.9-2-8.7,0.5c-1.6,1.4-1.9,3.8-4.3,4.5
			c-0.8-1.9-2.4-4.2-4.2-2.5c-2.3,2.3-4.8,1.3-7.2,1.8c-2.2,0.5-4.5,1-6,3c6.7,4.4,15.5,5.4,17.8,1.9c1.4,1.8,2.7,3.7,4.3,5.3
			c1.5,1.4,3.1,2.8,5.7,1.9c2.6-0.9,4.5-2.7,4.2-5.1c-0.4-3.3,1.2-3.1,3.5-3.1c61.8,0,123.6,0,185.4,0c2.6,0,3.5,0.5,4.2,3.1
			c1.2,5.1,6.2,7.8,10.8,6.4c3.8-1.2,6.2-5.5,4.6-8.8c-1.5-3.1-4-4.7-7.7-3.5c-2.1,0.7-3,2.3-3.1,4.4c-0.1,1.8,0.4,3.1,2.8,3
			c-0.9-2.6-1.3-5.1,2.1-5.7c2.3-0.4,3.8,1.2,4.1,3.3c0.3,2.7-0.9,4.7-3.9,5.2c-6.3,1.1-9.2-3-7.2-10.2c3.8-4.9,8.8-4.8,14.3-2.2
			c-5.5-5.7-12.2-4.6-16.1,2c-1.8,1.9-4.1,1-6.1,1c-60.2,0.1-120.5,0-180.7,0c-3.6,0-8.3,1.3-7.2-5C35.1,8.1,34.4,7.5,33.5,7.6z
			 M520.8,16.7c4,2.5,7,0,11-2c-3.8-1.9-6.6-3.9-10.3-2.6c-0.9,0.3-1.3,0.5-1.9-0.4c-2.7-4.2-4.5-1.8-6.4,1.2
			c-1.5-1.8-2.6-3.6-4.1-5c-1.9-1.8-4.4-2.9-7.2-1.9c-2.1,0.7-3.5,2.5-3.1,4.4c0.9,4.1-1.8,3.4-4.2,3.4c-33,0-65.9,0-98.9,0
			c-28.5,0-56.9,0-85.4,0c-1.8,0-3.9,0.8-5.3-1.5c-2.8-4.5-7-6.2-12.3-4.6c-5.2,1.5-10.7,8.3-11,13c1.1,0.1,1.1-0.9,1.5-1.5
			c2.5-3.3,4.7-6.9,8.6-9c3.6-1.9,7.2-1.4,10.1,1.4c2.6,2.5,3.2,5.6,1.2,8.7c-2.1,3.4-5.2,4.3-9,2.5c-0.3-0.2-0.9,0.1-1.6,0.2
			c1.4,3,3.9,2.9,6.3,2.6c3.5-0.5,6.3-2.7,6.7-5.6c0.6-4.2,2.9-4,6.1-4c60.8,0,121.5,0,182.3,0c1.7,0,3.3,0,5.1,0
			c-0.5,3.4-0.6,6.6,3.2,7.8c6.5,2.2,7.7-4,11.2-6.9c1,1.4,1.3,3.6,3.6,3.4c1.9-0.2,2.7-1.7,3-3.4C520.2,16.6,520.5,16.6,520.8,16.7
			z"/>
		<path class="st1" d="M520,16.6c-0.3,1.7-1.1,3.2-3,3.4c-2.3,0.2-2.6-1.9-3.6-3.4c-3.4,2.8-4.7,9-11.2,6.9
			c-3.8-1.3-3.7-4.4-3.2-7.8c-1.8,0-3.4,0-5.1,0c-60.8,0-121.5,0-182.3,0c-3.2,0-5.5-0.2-6.1,4c-0.4,3-3.2,5.2-6.7,5.6
			c-2.4,0.3-4.9,0.4-6.3-2.6c0.7-0.1,1.2-0.3,1.6-0.2c3.8,1.8,6.8,0.9,9-2.5c2-3.1,1.5-6.2-1.2-8.7c-2.9-2.8-6.5-3.3-10.1-1.4
			c-3.9,2.1-6.1,5.7-8.6,9c-0.4,0.6-0.4,1.6-1.5,1.5c0.2-4.7,5.8-11.5,11-13c5.3-1.6,9.6,0.1,12.3,4.6c1.4,2.3,3.4,1.5,5.3,1.5
			c28.5,0,56.9,0,85.4,0c33,0,65.9,0,98.9,0c2.4,0,5.1,0.7,4.2-3.4c-0.4-1.9,0.9-3.7,3.1-4.4c2.8-1,5.2,0.1,7.2,1.9
			c1.5,1.4,2.6,3.2,4.1,5c1.8-3,3.7-5.4,6.4-1.2c0.6,0.9,1,0.7,1.9,0.4c3.7-1.2,6.6,0.7,10.3,2.6c-4.1,2-7,4.5-11,2
			c0.8-1.6,3,0.8,3.7-1.2C521.6,14.4,521.6,14.4,520,16.6z M508.1,19c4.2-4.4,4.2-4.4-0.1-8.8C507.1,13.1,506.8,16.1,508.1,19z"/>
		<path class="st1" d="M230.9,12.8c-2,7.2,0.9,11.3,7.2,10.2c3-0.5,4.2-2.5,3.9-5.2c-0.2-2.1-1.8-3.7-4.1-3.3
			c-3.4,0.6-3,3.1-2.1,5.7c-2.4,0-2.9-1.3-2.8-3c0.1-2.1,1-3.7,3.1-4.4c3.7-1.2,6.2,0.4,7.7,3.5c1.6,3.3-0.8,7.6-4.6,8.8
			c-4.6,1.4-9.6-1.2-10.8-6.4c-0.6-2.6-1.6-3.2-4.2-3.1c-61.8,0.1-123.6,0.1-185.4,0c-2.4,0-4-0.2-3.5,3.1c0.3,2.4-1.6,4.2-4.2,5.1
			c-2.6,0.9-4.2-0.5-5.7-1.9c-1.6-1.5-2.9-3.5-4.3-5.3c-2.3,3.5-11.1,2.5-17.8-1.9c1.5-2,3.8-2.5,6-3c2.4-0.5,4.8,0.5,7.2-1.8
			c1.7-1.7,3.4,0.6,4.2,2.5c2.4-0.8,2.7-3.2,4.3-4.5c2.8-2.4,5.6-4.1,8.7-0.5c-1.8,0.3-2.9,1.6-3.8,2.8c-0.6,0.8-1.8,2.4-0.1,3.2
			c2.2,1.1,1.6-1.3,2.2-2.1c0.8-1.1,1.3-2.6,1.9-3.8c0.8-0.1,1.5,0.5,1.4,1c-1.1,6.3,3.6,5,7.2,5c60.2,0,120.5,0,180.7,0
			c2,0,4.4,0.9,6.1-1C229.7,12.7,230.3,12.8,230.9,12.8z M25.7,10.9c-5.1,3-2.6,5.5,0.2,8.2C26.8,16.4,28,13.7,25.7,10.9z"/>
		<path class="st1" d="M268.7,24.2c-0.6-0.2-1.3-0.7-1.8-0.6c-9.1,2.9-12.7,1.6-17.7-7c0.6-0.1,1.2-0.2,1.8-0.3
			c2.9,3.3,5.2,7.6,10.9,6.7c1-0.1,2,0.1,2.8-0.7c1.1-1.1,1.8-2.4,0.9-3.9c-0.6-1.1-1.8-2.2-3.2-1.5c-2.6,1.2-0.8,3.1-0.2,4.9
			c-3.6-1.2-4.6-4.5-2.1-5.7c3.8-1.8,3.5-4.6,4.4-7.4c0.5-1.6,0.9-3.4,2.9-4.6c2,3.3,4.2,6.4,1.3,10.8c2.7,0.3,5.6,0.5,6.3,3.4
			c0.5,2-1.7,2.4-2.8,4c-0.2-0.9-0.5-1.4-0.3-1.7c0.7-1.1,1.5-2.1,0.2-3.3c-0.9-0.8-1.8-0.6-2.7,0c-1.4,1-1.8,2.2-1,3.7
			c0.4,0.7,0.9,1.3,1.4,1.9C269.6,23.5,269.1,23.8,268.7,24.2z"/>
		<path class="st2" d="M230.9,12.8c-0.6-0.1-1.2-0.2-1.8-0.3c3.9-6.6,10.6-7.7,16.1-2C239.6,8,234.6,7.9,230.9,12.8z"/>
		<path class="st2" d="M268.7,24.2c0.4-0.4,0.9-0.7,1.3-1.1c4.1,1.1,7.4-1,11.4-3.4C278.8,25.2,273.9,26.6,268.7,24.2z"/>
		<path class="st1" d="M297,13.1c3.7,1,5.2,3.6,3.6,6.2c-0.6,1-1.6,2.5-3,1.7c-1.6-0.9,0-1.8,0.7-2.5c1.9-2,0.2-3-1.3-4.1
			C297,14,297,13.6,297,13.1z"/>
		<path class="st2" d="M251,16.4c-0.6,0.1-1.2,0.2-1.8,0.3c-1.4-1.4-2.4-2.9-2.1-4.8C249.1,12.7,250.4,14.3,251,16.4z"/>
		<path class="st1" d="M293.1,15.7c-1.2,1.8-1.2,3.8,0.1,6.6c-4.1-3.3-4-4.6-0.4-8.5C292.8,14.4,293,15,293.1,15.7z"/>
		<path class="st2" d="M520,16.6c1.7-2.1,1.7-2.1,4.5-1.1c-0.7,1.9-2.9-0.5-3.7,1.2C520.5,16.6,520.2,16.6,520,16.6z"/>
		<path class="st2" d="M293.1,15.7c-0.1-0.6-0.2-1.3-0.4-1.9c0.6-0.7,1.3-1.2,2.3-1.1c0.4,0.6,1,0.7,1.7,0.5c0,0,0.4-0.1,0.4-0.1
			c0,0.4,0,0.8,0,1.3C295.5,14.3,294.3,14.9,293.1,15.7z"/>
		<path class="st1" d="M296.7,13.2c-0.7,0.2-1.2,0-1.7-0.5C295.7,12.5,296.4,12.1,296.7,13.2z"/>
		<path class="st0" d="M508.1,19c-1.3-2.9-1-5.9-0.1-8.8C512.4,14.6,512.4,14.6,508.1,19z"/>
		<path class="st0" d="M25.7,10.9c2.3,2.8,1.1,5.4,0.2,8.2C23.1,16.5,20.6,13.9,25.7,10.9z"/>
		<path class="st2" d="M33.5,7.6c-0.6,1.3-1,2.7-1.9,3.8c-0.6,0.8,0,3.2-2.2,2.1c-1.6-0.8-0.5-2.4,0.1-3.2c0.9-1.2,2.1-2.5,3.8-2.8
			C33.4,7.4,33.5,7.6,33.5,7.6z"/>
	</g>
</g>
</svg>
